<svg xmlns="http://www.w3.org/2000/svg" xmlns:xlink="http://www.w3.org/1999/xlink" width="16" height="16" id="mobile"><defs><linearGradient id="d" x1="-863" x2="-854.066" y1="1037.362" y2="1037.362" gradientUnits="userSpaceOnUse" xlink:href="#a"></linearGradient><linearGradient id="a"><stop offset="0" stop-color="#412d60"></stop><stop offset="1" stop-color="#2f213e"></stop></linearGradient><linearGradient id="e" x1="-859.5" x2="-857.5" y1="1043.362" y2="1043.362" gradientUnits="userSpaceOnUse" xlink:href="#b"></linearGradient><linearGradient id="b"><stop offset="0" stop-color="#f3f3f3"></stop><stop offset="1" stop-color="#dfe3e4"></stop></linearGradient><linearGradient id="f" x1="-860.007" x2="-856.993" y1="1030.861" y2="1030.861" gradientUnits="userSpaceOnUse" xlink:href="#b"></linearGradient><linearGradient id="g" x1="-860.114" x2="-853.719" y1="1036.862" y2="1036.862" gradientUnits="userSpaceOnUse" xlink:href="#c"></linearGradient><linearGradient id="c"><stop offset="0" stop-color="#1fb2ff"></stop><stop offset="1" stop-color="#1b76fe"></stop></linearGradient></defs><g transform="translate(867 -1029.362)"><rect width="9" height="16" x="-863" y="1029.362" fill="url(#d)" rx="1" ry="1.067"></rect><path fill="url(#e)" d="M-857.5 1043.362a1 1 0 0 1-1 1 1 1 0 0 1-1-1 1 1 0 0 1 1-1 1 1 0 0 1 1 1z" opacity=".98"></path><path fill="url(#f)" fill-rule="evenodd" d="M-859.5 1030.361a.5.5 0 1 0 0 1h2a.5.5 0 1 0 0-1h-2z" color="#000" font-family="sans-serif" font-weight="400" overflow="visible" style="line-height:normal;text-indent:0;text-align:start;text-decoration-line:none;text-decoration-style:solid;text-decoration-color:#000;text-transform:none;block-progression:tb;white-space:normal;isolation:auto;mix-blend-mode:normal;solid-color:#000;solid-opacity:1"></path><rect width="7" height="9" x="-862" y="1032.362" fill="url(#g)" ry="0"></rect></g></svg>